# xmcd CD database file
# 
# Track frame offsets:
# 	150
# 	16137
# 	32045
# 	48655
# 	66472
# 	81145
# 	95807
# 	111370
# 	124622
# 	141185
# 
# Disc length: 2121 seconds
# 
# Submitted via: Nero 5.5.9.0
# 
# Revision: 0
# Processed by: cddbd v1.4PL0 Copyright (c) Steve Scherf et al.
#
DISCID=8c08470a
DTITLE=Canyon - Radio Romance
DYEAR=1900
DGENRE=
TTITLE0=Right Track, Wrong Train
TTITLE1=She Keeps Me In One Piece
TTITLE2=Radio Romance
TTITLE3=Louisiana Won't Let Go
TTITLE4=Hitch A Ride
TTITLE5=Hot Nights
TTITLE6=The Way She Said Goodbye
TTITLE7=Streamline
TTITLE8=Oh, Help Me
TTITLE9=Carryin' On
EXTD=
EXTT0=
EXTT1=
EXTT2=
EXTT3=
EXTT4=
EXTT5=
EXTT6=
EXTT7=
EXTT8=
EXTT9=
PLAYORDER=
